<?xml version="1.0" standalone="no"?>
<!DOCTYPE svg PUBLIC "-//W3C//DTD SVG 20010904//EN"
 "http://www.w3.org/TR/2001/REC-SVG-20010904/DTD/svg10.dtd">
<svg version="1.0" xmlns="http://www.w3.org/2000/svg"
 width="600.000000pt" height="225.000000pt" viewBox="0 0 600.000000 225.000000"
 preserveAspectRatio="xMidYMid meet">

<g transform="translate(0.000000,225.000000) scale(0.100000,-0.100000)"
fill="#f33" stroke="none">
<path d="M945 1973 c-423 -90 -714 -468 -692 -898 21 -393 288 -714 673 -806
76 -18 110 -20 229 -16 117 4 154 9 225 32 239 77 416 228 527 450 65 127 101
308 88 439 l-7 68 -447 -445 c-298 -298 -455 -448 -474 -452 -18 -5 -35 -2
-50 8 -12 9 -154 146 -315 304 -278 274 -293 290 -292 324 0 71 127 182 182
160 12 -5 122 -106 243 -224 l220 -215 415 411 c228 227 416 415 418 419 6 13
-71 123 -132 186 -118 124 -280 216 -443 252 -106 24 -267 25 -368 3z m243
-190 c35 -30 33 -85 -3 -109 -23 -15 -27 -15 -49 0 -32 20 -41 50 -26 86 10
25 22 33 51 39 4 0 16 -7 27 -16z m-137 -3 c30 -17 23 -33 -11 -25 -36 8 -46
-8 -30 -49 10 -27 30 -31 38 -8 2 7 0 11 -5 10 -4 -2 -9 2 -11 7 -1 6 9 11 23
13 20 3 25 -1 25 -17 0 -12 0 -24 1 -28 0 -5 -13 -13 -29 -20 -26 -11 -34 -10
-56 8 -34 27 -36 81 -4 103 26 19 33 19 59 6z m229 -40 l5 -45 19 43 c10 23
20 42 22 42 1 0 9 -3 17 -6 12 -4 9 -17 -20 -65 -30 -51 -38 -57 -54 -48 -12
6 -19 20 -19 38 0 16 -3 43 -6 61 -6 28 -4 32 12 28 14 -2 20 -14 24 -48z
m157 2 c8 -5 9 -21 3 -52 l-8 -44 27 33 c21 25 33 32 46 27 16 -6 12 -13 -30
-56 -61 -62 -80 -58 -71 14 3 28 6 59 6 69 0 18 8 21 27 9z m-557 -16 c0 -8
-9 -18 -20 -21 -11 -3 -20 -13 -20 -21 0 -12 4 -12 20 -4 32 17 47 0 19 -21
-29 -22 -18 -36 15 -21 19 8 25 8 29 -2 4 -9 -9 -20 -34 -31 -22 -10 -41 -16
-43 -14 -2 2 -15 28 -30 56 l-26 52 37 20 c46 24 53 25 53 7z m-75 -107 c36
-50 24 -67 -30 -45 l-37 16 16 -25 c16 -24 14 -45 -3 -45 -10 0 -71 87 -71
101 0 12 39 8 75 -6 20 -8 20 -8 1 13 -22 25 -15 62 8 43 7 -6 26 -30 41 -52z
m768 3 l-5 -37 21 25 c15 19 23 22 32 13 9 -9 4 -22 -22 -58 -41 -57 -65 -57
-61 0 l3 40 -20 -23 c-19 -21 -41 -23 -41 -3 0 5 16 29 36 55 28 37 39 45 49
36 9 -7 12 -24 8 -48z m-215 30 c2 -7 -6 -12 -17 -12 -21 0 -27 11 -14 24 9 9
26 2 31 -12z m-388 -1 c0 -14 -18 -23 -30 -16 -6 4 -8 11 -5 16 8 12 35 12 35
0z m-272 -104 c35 -36 40 -46 29 -55 -10 -9 -23 -2 -56 32 -24 24 -40 49 -37
55 11 18 19 13 64 -32z m-70 -81 l23 -21 18 24 c27 35 37 8 11 -29 -12 -17
-23 -30 -26 -30 -2 0 -27 17 -54 37 -38 29 -47 40 -38 50 11 14 18 11 66 -31z
m-11 -63 c33 -22 18 -43 -31 -43 l-41 -1 32 -17 c24 -12 30 -21 23 -31 -7 -12
-18 -9 -64 15 -31 16 -54 33 -53 39 2 5 21 15 43 21 35 10 37 12 17 18 -22 7
-30 26 -17 39 6 6 48 -12 91 -40z m-54 -124 c22 -28 22 -44 -4 -70 -22 -22
-67 -21 -96 2 -18 16 -16 59 4 82 22 23 70 16 96 -14z"/>
<path d="M1144 1757 c-9 -25 0 -62 16 -62 10 0 15 10 15 34 0 36 -21 54 -31
28z"/>
<path d="M476 1261 c-11 -16 26 -36 62 -32 17 2 15 28 -4 35 -23 9 -52 7 -58
-3z"/>
<path d="M2059 1757 c190 -276 243 -664 135 -986 -31 -91 -94 -219 -140 -284
l-34 -47 1905 0 c2104 0 1943 -5 2013 63 60 58 62 77 62 614 0 336 -4 498 -12
531 -14 58 -76 122 -134 140 -32 9 -465 12 -1933 12 l-1892 0 30 -43z m1844
-27 c7 -29 67 -28 74 1 4 16 12 19 37 17 25 -2 30 -7 28 -23 -2 -11 -14 -31
-27 -44 -33 -34 -114 -35 -150 -1 -14 13 -25 34 -25 47 0 19 5 23 29 23 20 0
30 -6 34 -20z m-842 -1 c30 -9 42 -9 53 0 12 10 20 10 38 0 34 -17 33 -17 8
-44 -26 -27 -66 -32 -118 -14 -22 7 -36 7 -51 -1 -22 -11 -61 1 -61 20 0 20
41 50 66 50 15 0 44 -5 65 -11z m2590 -34 c-36 -34 -56 -45 -80 -45 -17 0 -31
3 -31 6 0 3 12 23 28 45 25 36 30 39 79 39 l52 0 -48 -45z m-2526 -65 c5 -8
105 -519 105 -536 0 -2 -24 -4 -54 -4 l-53 0 -7 50 -7 50 -59 0 c-63 0 -61 2
-75 -67 -6 -32 -8 -33 -55 -33 -35 0 -48 4 -45 13 2 6 25 125 50 262 26 138
48 256 50 263 5 15 141 17 150 2z m1637 0 c20 -6 48 -24 62 -41 22 -25 26 -41
26 -90 l0 -60 -47 3 -48 3 -3 45 c-4 66 -42 90 -82 50 -18 -18 -20 -33 -20
-180 0 -147 2 -162 20 -180 23 -23 33 -24 61 -10 16 9 19 22 19 75 0 58 -2 65
-20 65 -17 0 -20 7 -20 40 l0 40 70 0 70 0 0 -114 c0 -108 -1 -116 -26 -145
-44 -53 -157 -66 -220 -25 -48 32 -54 58 -54 254 0 209 6 230 73 261 47 21 85
24 139 9z m-1960 -38 l33 -32 0 -200 0 -200 -33 -32 -32 -33 -125 -3 -125 -4
0 116 c0 96 -3 116 -15 116 -10 0 -15 11 -15 35 0 24 5 35 15 35 13 0 15 20
15 121 l0 121 125 -4 125 -3 32 -33z m864 22 c58 -28 64 -51 64 -254 0 -258
-9 -270 -200 -270 l-110 0 0 115 c0 108 -1 115 -20 115 -16 0 -20 7 -20 35 0
28 4 35 20 35 19 0 20 7 20 120 l0 120 106 0 c77 0 115 -4 140 -16z m354 7 c0
-9 86 -471 95 -508 5 -22 2 -23 -49 -23 l-55 0 -7 45 -6 45 -64 0 c-60 0 -64
-2 -64 -22 0 -58 -9 -68 -62 -68 -36 0 -49 4 -45 13 2 6 26 128 53 270 l48
257 78 0 c43 0 78 -4 78 -9z m321 -133 l47 -143 1 143 1 142 50 0 50 0 0 -270
0 -271 -56 3 -57 3 -56 177 -56 177 -3 -180 -2 -179 -50 0 -50 0 0 270 0 270
68 0 67 0 46 -142z m831 35 l3 -106 58 106 59 107 54 0 53 0 -70 -120 -70
-120 57 -122 c31 -68 63 -136 71 -151 l14 -28 -57 3 -57 3 -45 102 c-40 90
-47 100 -58 85 -9 -11 -13 -49 -14 -104 l0 -88 -55 0 -55 0 0 270 0 270 55 0
54 0 3 -107z m384 -10 l37 -118 36 115 37 115 52 3 51 3 -15 -43 c-112 -311
-114 -318 -114 -410 l0 -88 -52 0 -53 0 3 82 c3 80 1 90 -63 267 -36 102 -65
186 -65 188 0 2 24 3 54 3 l54 0 38 -117z m184 -548 c0 -13 -185 -15 -1605
-15 -1420 0 -1605 2 -1605 15 0 13 185 15 1605 15 1420 0 1605 -2 1605 -15z
m-2836 -100 c13 -19 13 -25 3 -25 -7 0 -18 5 -25 12 -9 9 -15 9 -24 0 -7 -7
-21 -12 -32 -12 -18 0 -18 1 4 25 13 14 31 25 41 25 9 0 24 -11 33 -25z m606
0 c22 -24 22 -25 4 -25 -11 0 -25 5 -31 11 -8 8 -17 7 -31 -2 -28 -18 -39 -4
-17 21 24 27 47 25 75 -5z m1730 -38 c0 -13 -8 -31 -18 -41 -16 -14 -18 -27
-15 -89 4 -64 2 -76 -19 -107 -30 -44 -81 -60 -128 -40 -81 34 -93 202 -19
254 26 18 104 22 114 6 12 -20 45 -10 51 15 8 32 34 33 34 2z m-240 -8 c0 -32
-17 -56 -45 -63 -24 -6 -25 -9 -25 -85 0 -76 -1 -80 -31 -105 -53 -45 -136
-26 -158 35 -6 18 -11 74 -11 125 0 87 1 94 20 94 19 0 20 -7 20 -94 0 -52 4
-106 9 -119 12 -32 55 -43 87 -22 23 15 24 20 24 125 0 103 1 110 20 110 13 0
20 -7 20 -20 0 -11 4 -20 8 -20 14 0 32 23 32 42 0 10 7 18 15 18 8 0 15 -9
15 -21z m-2327 -10 c12 -7 25 -17 29 -23 12 -18 9 -64 -6 -78 -11 -12 -11 -18
5 -37 25 -31 24 -64 -4 -97 -21 -25 -31 -27 -93 -28 l-69 -1 -3 138 -3 137 61
0 c34 0 71 -5 83 -11z m267 -17 c70 -71 42 -226 -45 -248 -41 -10 -87 8 -112
45 -18 26 -23 48 -23 97 0 57 3 67 31 99 27 30 37 35 76 35 36 0 50 -6 73 -28z
m354 2 c31 -32 35 -64 6 -64 -11 0 -20 6 -20 14 0 43 -73 61 -105 26 -23 -26
-31 -110 -15 -151 24 -56 99 -59 120 -4 11 29 40 34 40 6 0 -58 -84 -97 -147
-67 -78 37 -86 198 -12 250 37 26 101 21 133 -10z m234 10 c73 -51 69 -209 -7
-248 -85 -45 -161 16 -161 129 0 82 43 135 110 135 20 0 46 -7 58 -16z m206
-86 l66 -103 0 103 c0 95 1 102 20 102 19 0 20 -7 20 -140 0 -180 -9 -184
-101 -39 l-64 102 -5 -99 c-4 -84 -8 -99 -22 -102 -16 -3 -18 9 -18 137 0 132
1 141 19 141 13 0 39 -31 85 -102z m327 89 c15 -11 39 -49 39 -61 0 -16 -35
-3 -52 19 -27 34 -70 33 -97 -1 -24 -30 -29 -106 -10 -148 27 -58 119 -55 119
4 0 27 -3 30 -30 30 -20 0 -30 5 -30 15 0 11 12 15 50 15 l50 0 0 -56 c0 -53
-1 -55 -35 -70 -99 -41 -175 15 -175 130 0 90 37 136 109 136 25 0 53 -6 62
-13z m369 -2 c0 -11 -11 -15 -40 -15 l-39 0 -3 -122 c-3 -108 -5 -123 -20
-126 -16 -3 -18 8 -18 122 l0 126 -45 0 c-33 0 -45 4 -45 15 0 12 18 15 105
15 87 0 105 -3 105 -15z m80 -45 l0 -60 65 0 65 0 0 60 c0 53 2 60 20 60 19 0
20 -7 20 -141 0 -128 -2 -140 -17 -137 -15 3 -19 16 -21 66 l-3 62 -64 0 -65
0 0 -66 c0 -57 -2 -65 -17 -62 -16 3 -18 19 -21 141 -2 132 -2 137 18 137 18
0 20 -6 20 -60z m860 -42 l65 -103 3 103 c2 94 4 102 23 102 19 0 19 -6 17
-137 -4 -179 -12 -183 -102 -44 -36 56 -68 101 -71 101 -4 0 -5 -44 -4 -97 2
-90 0 -98 -17 -98 -18 0 -19 10 -22 138 -3 137 -3 137 20 137 18 0 37 -21 88
-102z m331 89 c15 -11 39 -49 39 -61 0 -16 -35 -3 -52 19 -27 34 -70 33 -97
-1 -24 -30 -29 -106 -10 -148 27 -58 119 -55 119 4 0 27 -3 30 -30 30 -20 0
-30 5 -30 15 0 11 12 15 50 15 l50 0 0 -56 c0 -53 -1 -55 -35 -70 -99 -41
-175 15 -175 130 0 90 37 136 109 136 25 0 53 -6 62 -13z m-2816 -307 c0 -8
-8 -16 -17 -18 -13 -2 -18 3 -18 18 0 15 5 20 18 18 9 -2 17 -10 17 -18z"/>
<path d="M3026 1407 c-11 -62 -21 -118 -24 -124 -3 -9 9 -13 42 -13 30 0 46 4
46 13 0 14 -41 231 -44 234 -1 1 -10 -48 -20 -110z"/>
<path d="M2630 1470 l0 -80 30 0 c28 0 30 -3 30 -35 0 -32 -2 -35 -30 -35
l-30 0 0 -76 0 -75 48 3 47 3 3 179 c3 198 4 196 -60 196 l-38 0 0 -80z"/>
<path d="M3520 1470 l0 -80 30 0 c28 0 30 -3 30 -35 0 -32 -2 -35 -30 -35
l-30 0 0 -75 0 -75 45 0 c34 0 47 5 55 19 5 11 10 86 10 171 0 85 -5 160 -10
171 -8 14 -21 19 -55 19 l-45 0 0 -80z"/>
<path d="M3917 1419 c-10 -58 -21 -115 -24 -127 -5 -20 -2 -22 41 -22 l47 0
-6 33 c-3 17 -14 75 -23 127 l-18 95 -17 -106z"/>
<path d="M5061 773 c-37 -31 -40 -142 -5 -178 9 -8 31 -15 49 -15 46 0 65 29
65 101 0 92 -54 137 -109 92z"/>
<path d="M2570 745 c0 -44 1 -45 31 -45 43 0 69 17 69 45 0 28 -26 45 -69 45
-30 0 -31 -1 -31 -45z"/>
<path d="M2570 625 l0 -45 43 0 c47 0 67 13 67 45 0 32 -20 45 -67 45 l-43 0
0 -45z"/>
<path d="M2821 764 c-26 -33 -29 -128 -5 -162 18 -26 74 -30 98 -7 20 20 30
76 23 123 -11 69 -78 95 -116 46z"/>
<path d="M3425 765 c-20 -19 -25 -34 -25 -75 0 -28 7 -64 15 -80 13 -25 21
-30 54 -30 51 0 64 18 69 95 4 58 2 66 -21 89 -33 33 -61 33 -92 1z"/>
</g>
</svg>
