<?xml version="1.0" standalone="no"?>
<!DOCTYPE svg PUBLIC "-//W3C//DTD SVG 20010904//EN"
 "http://www.w3.org/TR/2001/REC-SVG-20010904/DTD/svg10.dtd">
<svg version="1.0" xmlns="http://www.w3.org/2000/svg"
 width="2337.000000pt" height="770.000000pt" viewBox="0 0 2337.000000 770.000000"
 preserveAspectRatio="xMidYMid meet">

<g transform="translate(0.000000,770.000000) scale(0.100000,-0.100000)"
fill="#fb5533" stroke="none">
<path d="M3056 7664 c-535 -97 -921 -552 -1105 -1304 -49 -202 -91 -498 -91
-647 l0 -53 -800 0 c-765 0 -802 -1 -850 -19 -28 -11 -66 -31 -85 -45 -42 -32
-92 -131 -100 -199 -6 -52 283 -4108 305 -4274 31 -235 139 -460 280 -580 62
-54 148 -101 235 -131 l80 -27 2310 -3 c2593 -3 2380 -9 2550 73 237 113 402
377 444 710 17 128 303 4052 304 4160 1 158 -46 251 -155 305 l-64 31 -812 -1
-812 0 0 53 c0 230 -76 617 -177 897 -108 300 -250 537 -433 721 -191 193
-373 293 -609 334 -104 19 -310 18 -415 -1z m392 -364 c201 -48 376 -179 514
-384 71 -107 106 -175 163 -316 95 -237 172 -578 191 -847 l7 -93 -1047 0
-1046 0 0 63 c0 145 48 443 104 648 82 300 207 536 366 697 208 209 486 295
748 232z m197 -2550 c246 -52 527 -186 571 -272 32 -62 -2 -135 -73 -159 -32
-10 -42 -7 -166 55 -280 138 -570 204 -782 175 -231 -30 -404 -129 -514 -294
-68 -101 -96 -187 -96 -295 0 -104 20 -170 81 -262 117 -176 319 -293 760
-442 429 -145 627 -248 790 -413 163 -165 232 -355 221 -608 -7 -155 -24 -230
-82 -350 -76 -158 -188 -270 -357 -359 -436 -232 -1079 -180 -1573 126 -171
106 -222 169 -192 240 20 46 49 69 94 75 34 4 48 -3 138 -63 324 -218 736
-323 1055 -270 298 50 509 181 609 378 114 223 63 473 -136 665 -150 146 -374
259 -718 363 -349 106 -551 213 -721 384 -50 50 -107 119 -127 153 -79 137
-117 309 -98 446 53 378 353 671 759 743 118 20 428 12 557 -16z"/>
<path d="M9355 4814 c-225 -35 -411 -129 -556 -282 -145 -153 -217 -327 -238
-572 -29 -328 92 -562 394 -762 164 -109 314 -177 625 -283 322 -109 506 -210
655 -360 59 -59 91 -101 119 -157 36 -72 40 -86 44 -180 7 -158 -20 -254 -104
-364 -83 -109 -207 -185 -380 -231 -86 -23 -119 -26 -259 -27 -170 0 -250 11
-410 61 -127 39 -313 135 -467 240 l-143 98 -67 0 c-58 0 -72 -4 -110 -30
-108 -75 -116 -218 -17 -312 112 -105 469 -300 670 -367 209 -69 287 -80 544
-80 226 0 232 0 348 31 194 52 377 149 506 269 210 194 318 491 282 769 -64
477 -447 824 -1131 1025 -155 45 -270 91 -363 146 -228 133 -334 260 -345 414
-13 186 72 373 215 471 98 68 262 109 431 109 241 -1 450 -57 649 -176 51 -30
106 -57 122 -60 109 -22 213 79 213 206 0 103 -48 156 -221 244 -171 87 -320
134 -514 161 -127 18 -372 18 -492 -1z"/>
<path d="M11225 4815 c-48 -17 -102 -76 -110 -119 -3 -17 -4 -787 -3 -1712 l3
-1681 28 -36 c34 -45 73 -66 136 -74 87 -10 170 31 202 101 17 38 19 77 19
604 l0 563 30 78 c66 171 206 349 333 425 101 60 183 81 317 80 270 -1 454
-108 542 -315 23 -54 23 -54 28 -729 5 -613 7 -678 22 -706 35 -65 106 -104
189 -104 52 0 134 45 161 88 l23 37 5 570 c6 632 1 789 -30 901 -41 152 -151
323 -272 427 -124 106 -306 190 -468 216 -164 27 -374 7 -536 -50 -112 -40
-163 -65 -263 -134 l-81 -54 0 747 c0 707 -1 749 -19 788 -39 87 -152 126
-256 89z"/>
<path d="M14476 3404 c-443 -80 -815 -414 -922 -829 -21 -82 -26 -125 -27
-235 -2 -210 37 -376 132 -557 189 -358 522 -568 936 -590 343 -17 668 101
890 324 158 160 268 370 311 600 24 127 15 324 -20 458 -129 493 -596 848
-1110 844 -61 0 -147 -7 -190 -15z m374 -400 c108 -24 240 -96 329 -180 283
-266 317 -653 86 -954 -86 -112 -213 -199 -365 -252 -90 -31 -102 -32 -240
-33 -137 0 -150 2 -233 32 -125 44 -190 86 -292 188 -148 147 -215 305 -215
504 0 169 49 306 155 434 186 225 484 325 775 261z"/>
<path d="M17162 3405 c-200 -36 -392 -125 -549 -252 l-53 -43 0 67 c-1 149
-67 223 -200 223 -75 0 -132 -28 -167 -81 l-28 -43 -3 -1544 c-2 -1106 1
-1556 9 -1585 20 -75 105 -137 189 -137 83 0 168 61 189 135 7 27 11 246 11
689 l0 649 33 -27 c306 -251 709 -328 1111 -211 397 115 681 430 767 849 123
600 -304 1202 -929 1311 -102 18 -281 18 -380 0z m386 -406 c123 -31 224 -91
328 -194 101 -100 151 -178 192 -303 22 -66 26 -95 26 -202 0 -115 -2 -132
-31 -213 -42 -120 -85 -188 -173 -277 -91 -92 -188 -152 -312 -192 -395 -128
-805 78 -946 475 -22 64 -26 88 -26 212 -1 152 8 192 65 308 130 261 437 432
734 410 39 -3 103 -14 143 -24z"/>
<path d="M19780 3414 c-14 -2 -52 -9 -85 -15 -372 -64 -666 -341 -779 -731
-63 -220 -74 -505 -26 -688 85 -324 266 -567 518 -694 273 -138 697 -157 1048
-45 128 40 277 113 320 155 68 69 67 182 -3 264 -75 88 -133 91 -294 15 -179
-84 -253 -99 -494 -100 -218 0 -291 13 -408 71 -146 74 -250 219 -297 418 -11
44 -20 87 -20 94 0 9 156 12 745 12 806 0 785 -1 843 53 49 46 66 95 65 192 0
226 -93 501 -221 660 -129 161 -332 275 -566 320 -80 16 -298 28 -346 19z
m302 -409 c194 -41 329 -162 394 -355 13 -40 24 -74 24 -76 0 -2 -270 -4 -601
-4 l-600 0 7 23 c16 52 55 129 92 185 76 112 189 191 322 226 72 19 275 20
362 1z"/>
<path d="M22192 3409 c-374 -48 -684 -307 -810 -674 -97 -284 -106 -572 -27
-825 154 -488 513 -741 1055 -742 222 0 437 41 616 119 186 81 234 124 242
219 9 111 -71 211 -178 222 -44 4 -60 -1 -153 -47 -156 -77 -264 -102 -473
-108 -196 -6 -287 7 -414 60 -61 25 -89 44 -151 106 -105 105 -153 206 -194
413 -3 16 43 18 758 20 l762 3 38 23 c20 13 50 45 65 70 26 45 27 53 26 172
-1 99 -7 145 -27 220 -32 123 -77 239 -124 320 -51 88 -199 236 -288 287 -211
122 -476 174 -723 142z m350 -408 c143 -37 243 -107 318 -223 35 -53 88 -193
78 -203 -3 -3 -273 -4 -601 -3 l-596 3 33 77 c83 191 215 309 396 353 86 21
282 19 372 -4z"/>
</g>
</svg>
